<svg xmlns="http://www.w3.org/2000/svg" fill="none" viewBox="0 0 14 14" height="24" width="24"><path fill="#D7E0FF" stroke="#4147D5" d="M7.29143 12.6971C7.99955 13.3437 9.07973 13.3863 9.8529 12.819C10.4101 12.4101 10.969 11.9775 11.4743 11.4722C11.9796 10.9669 12.4122 10.408 12.821 9.85083C13.3884 9.07766 13.3458 7.99748 12.6991 7.28936C10.8579 5.27319 8.96068 3.40427 6.90148 1.57651C6.65228 1.35532 6.35247 1.20186 6.02538 1.13826C4.83959 0.907709 1.8818 0.422143 1.15301 1.15093C0.424218 1.87972 0.909783 4.83751 1.14034 6.02331C1.20393 6.3504 1.35739 6.6502 1.57859 6.89941C3.40635 8.95861 5.27526 10.8558 7.29143 12.6971Z"></path><circle cx="4.662" cy="4.66" r="1.209" fill="#ffffff" stroke="#4147D5" transform="rotate(-45 4.662 4.66)"></circle></svg>
   